<svg xmlns="http://www.w3.org/2000/svg" width="145.617" height="145.595" viewBox="0 0 145.617 145.595"><defs><style>.a{fill:#1b1c20;}</style></defs><g transform="translate(-16 -16)"><path class="a" d="M157.418,113.368a9.23,9.23,0,0,0-8.789-.721l-1.573.692V59.685a7.289,7.289,0,0,0-7.281-7.281H120.359a7.289,7.289,0,0,0-7.281,7.281v68.6l-7.281,3.2V71.82A7.29,7.29,0,0,0,99.459,64.6L127.64,36.421l9.708,9.708V16H107.219l9.708,9.708L98.517,44.118,83.955,29.556,41.691,71.82,52.4,82.533l31.55-31.551L97.511,64.539H79.1A7.289,7.289,0,0,0,71.82,71.82v38.831H64.539V93.663a7.289,7.289,0,0,0-7.281-7.281H37.843a7.289,7.289,0,0,0-7.281,7.281v26.7H16v4.854H39.092A16.877,16.877,0,0,0,51.1,120.237l1.178-1.178a12.055,12.055,0,0,1,8.58-3.554H90.022a3.64,3.64,0,0,1,0,7.281H59.685v4.854h6.83l27.4,10.537a12.061,12.061,0,0,0,9.243-.219l47.429-20.869a4.405,4.405,0,0,1,3.855,7.916l-52.073,27.9a32.163,32.163,0,0,1-23.9,2.65l-29.629-8.23a7.287,7.287,0,0,0-1.949-.265H16v4.854H46.889a2.428,2.428,0,0,1,.649.088l29.629,8.23a37.006,37.006,0,0,0,27.491-3.048l52.072-27.9a9.259,9.259,0,0,0,.688-15.917ZM48.85,115.627l-1.178,1.178a12.055,12.055,0,0,1-8.58,3.554H35.416v-4.854H48.978c-.042.041-.086.08-.128.122Zm10.835-4.976H35.416v-7.281h24.27Zm0-12.135H35.416V93.663a2.43,2.43,0,0,1,2.427-2.427H57.258a2.43,2.43,0,0,1,2.427,2.427Zm24.27-54.4L52.4,75.669,48.556,71.82l35.4-35.4L98.517,50.983l25.275-25.275-4.854-4.854h13.557V34.41l-4.854-4.854L98.517,58.68Zm16.989,89.5a7.23,7.23,0,0,1-5.289.026L80.037,127.64h9.985a8.488,8.488,0,0,0,8.406-9.708h2.515Zm0-20.543H95.959a8.465,8.465,0,0,0-5.937-2.427H76.674V105.8h24.27Zm0-12.135H76.674V93.663h24.27Zm0-12.135H76.674V81.528h24.27Zm0-12.135H76.674V71.82A2.43,2.43,0,0,1,79.1,69.393H98.517a2.43,2.43,0,0,1,2.427,2.427Zm16.989,49.48v-8.221h18.685Zm24.27-13.075h-24.27V105.8H142.2Zm0-12.135h-24.27V93.663H142.2Zm0-12.135h-24.27V81.528H142.2Zm0-12.135h-24.27V69.393H142.2Zm0-12.135h-24.27V59.685a2.43,2.43,0,0,1,2.427-2.427h19.416a2.43,2.43,0,0,1,2.427,2.427Z"/></g></svg>