<svg xmlns="http://www.w3.org/2000/svg" width="68.806" height="68.804" viewBox="0 0 68.806 68.804"><defs><style>.a{fill:#b4c618;}</style></defs><g transform="translate(-5 -5)"><path class="a" d="M42.781,73.8H36.023a5.2,5.2,0,0,1-5.19-5.19V65.733a2.39,2.39,0,0,0-3.979-1.663l-2.048,2.048a5.2,5.2,0,0,1-7.341,0l-4.777-4.779a5.2,5.2,0,0,1,0-7.341l2.046-2.046a2.258,2.258,0,0,0,.44-2.472,2.3,2.3,0,0,0-2.1-1.509H10.19A5.2,5.2,0,0,1,5,42.779V36.022a5.2,5.2,0,0,1,5.19-5.19h2.882a2.391,2.391,0,0,0,1.662-3.98L12.688,24.8a5.189,5.189,0,0,1,0-7.341l4.777-4.777a5.2,5.2,0,0,1,7.341,0l2.048,2.046a2.256,2.256,0,0,0,2.471.44,2.3,2.3,0,0,0,1.508-2.1V10.19A5.2,5.2,0,0,1,36.023,5h6.758a5.2,5.2,0,0,1,5.19,5.19v2.882a2.392,2.392,0,0,0,3.982,1.66L54,12.687a5.2,5.2,0,0,1,7.341,0l4.779,4.779a5.191,5.191,0,0,1,0,7.34l-2.048,2.048a2.261,2.261,0,0,0-.44,2.472,2.3,2.3,0,0,0,2.1,1.506h2.881a5.2,5.2,0,0,1,5.19,5.19v6.758a5.2,5.2,0,0,1-5.19,5.19H65.735a2.392,2.392,0,0,0-1.662,3.982L66.119,54a5.2,5.2,0,0,1,0,7.341L61.34,66.118a5.2,5.2,0,0,1-7.341,0L51.953,64.07a2.26,2.26,0,0,0-2.474-.44,2.3,2.3,0,0,0-1.508,2.1v2.881a5.2,5.2,0,0,1-5.19,5.19ZM28.4,60.485a5.393,5.393,0,0,1,2.058.411,5.238,5.238,0,0,1,3.337,4.836v2.881a2.235,2.235,0,0,0,2.232,2.232h6.758a2.235,2.235,0,0,0,2.232-2.232V65.732a5.349,5.349,0,0,1,9.033-3.757l2.046,2.049a2.233,2.233,0,0,0,3.156,0l4.779-4.779a2.233,2.233,0,0,0,0-3.156l-2.048-2.046a5.215,5.215,0,0,1-1.084-5.693l.064-.145a5.173,5.173,0,0,1,4.774-3.195h2.881a2.235,2.235,0,0,0,2.232-2.232V36.02a2.234,2.234,0,0,0-2.232-2.232H65.733a5.347,5.347,0,0,1-3.756-9.031l2.048-2.048a2.23,2.23,0,0,0,0-3.155l-4.779-4.779a2.233,2.233,0,0,0-3.156,0l-2.046,2.046a5.347,5.347,0,0,1-9.033-3.754V10.19a2.234,2.234,0,0,0-2.232-2.232H36.022A2.234,2.234,0,0,0,33.79,10.19v2.881a5.346,5.346,0,0,1-9.031,3.754l-2.048-2.046a2.233,2.233,0,0,0-3.156,0l-4.777,4.779a2.23,2.23,0,0,0,0,3.155l2.046,2.048a5.346,5.346,0,0,1-3.754,9.031H10.19a2.234,2.234,0,0,0-2.232,2.232v6.758a2.235,2.235,0,0,0,2.232,2.232h2.882a5.347,5.347,0,0,1,3.754,9.033l-2.048,2.046a2.233,2.233,0,0,0,0,3.156l4.777,4.779a2.233,2.233,0,0,0,3.156,0l2.048-2.048A5.122,5.122,0,0,1,28.4,60.485Z" transform="translate(0 0)"/><path class="a" d="M48.119,53.843a6.087,6.087,0,0,1-4.3-1.781l-6.025-6.025a1.48,1.48,0,1,1,2.093-2.093l6.025,6.025a2.976,2.976,0,0,0,4.109.19,2.861,2.861,0,0,0,.064-4.106l-6.061-6.061A1.48,1.48,0,1,1,46.113,37.9l6.061,6.061a5.819,5.819,0,0,1-.127,8.352,5.7,5.7,0,0,1-3.928,1.53ZM21.939,36.5a1.481,1.481,0,0,1-.649-.15,11.09,11.09,0,0,1-1.743-1.066A11.257,11.257,0,0,1,15.6,22.636a1.857,1.857,0,0,1,3.069-.7l4.9,4.9,3.24-3.24-4.9-4.9a1.855,1.855,0,0,1,.7-3.068,11.238,11.238,0,0,1,13.713,5.691,1.479,1.479,0,1,1-2.658,1.3,8.288,8.288,0,0,0-8.246-4.595l3.723,3.724a2.62,2.62,0,0,1,0,3.7l-3.724,3.724a2.682,2.682,0,0,1-3.7,0L18,25.448a8.322,8.322,0,0,0,3.319,7.473,7.911,7.911,0,0,0,1.268.776,1.478,1.478,0,0,1-.652,2.806Z" transform="translate(4.96 4.965)"/><path class="a" d="M21.553,48.739A5.444,5.444,0,0,1,17.7,47.145l-.371-.369a5.464,5.464,0,0,1,0-7.72l13.3-13.3a1.477,1.477,0,0,1,2.091,0l5.995,6a1.481,1.481,0,0,1,0,2.093l-13.3,13.3a5.435,5.435,0,0,1-3.858,1.594Zm10.12-19.847L19.415,41.15a2.5,2.5,0,0,0,0,3.533l.369.368h0a2.5,2.5,0,0,0,3.533,0L35.574,32.8Z" transform="translate(5.318 10.073)"/><path class="a" d="M28.032,34.411a1.48,1.48,0,0,1-1.046-2.526l9.441-9.441-.156-.971a2.026,2.026,0,0,1,1.005-2.084l4.885-2.707a2.058,2.058,0,0,1,2.447.36L46.466,18.9a2.071,2.071,0,0,1,.36,2.444l-2.707,4.888a2.023,2.023,0,0,1-2.085,1.005l-.968-.156-5.272,5.271A1.48,1.48,0,1,1,33.7,30.256l5.615-5.615a2.011,2.011,0,0,1,1.75-.561l.788.127L43.9,20.516l-.911-.909L39.3,21.653l.127.79a2.026,2.026,0,0,1-.558,1.746l-9.788,9.788a1.47,1.47,0,0,1-1.047.435Z" transform="translate(10.685 5.667)"/></g></svg>