<svg xmlns="http://www.w3.org/2000/svg" width="68.806" height="86.001" viewBox="0 0 68.806 86.001"><defs><style>.a{fill:#b4c618;}</style></defs><g transform="translate(-37.5)"><g transform="translate(37.5)"><path class="a" d="M102,0H41.81A4.305,4.305,0,0,0,37.5,4.31V81.691A4.305,4.305,0,0,0,41.81,86H102a4.305,4.305,0,0,0,4.31-4.31V4.31A4.335,4.335,0,0,0,102,0ZM54.673,77.358h-8.6v-8.6h8.6Zm0-17.173h-8.6v-8.6h8.6Zm0-17.173h-8.6v-8.6h8.6ZM76.156,77.358h-8.6v-8.6h8.6Zm0-17.173h-8.6v-8.6h8.6Zm0-17.173h-8.6v-8.6h8.6Zm21.46,34.346h-8.6V51.587h8.6Zm0-34.346h-8.6v-8.6h8.6Zm.023-17.219H46.052V8.6H97.639Z" transform="translate(-37.5)"/></g></g></svg>