<svg xmlns="http://www.w3.org/2000/svg" width="85" height="84.952" viewBox="0 0 85 84.952"><defs><style>.a{fill:#b4c618;}</style></defs><g transform="translate(0 0)"><path class="a" d="M69.432,40.244H64.766V38.523A1.264,1.264,0,0,0,63.5,37.259H52.779a1.264,1.264,0,0,0-1.264,1.265v2.96H38.383V36.865A14.215,14.215,0,0,0,50,22.909V18.965a1.264,1.264,0,1,0-2.528,0v3.944A11.679,11.679,0,0,1,35.806,34.575H31.524A11.679,11.679,0,0,1,19.858,22.909v-.458a4.22,4.22,0,0,0,5.917-3.866v-.539a1.694,1.694,0,1,1,3.388,0v7a4.223,4.223,0,0,0,8.445,0V7.322h9.864v6.586a1.264,1.264,0,1,0,2.528,0V7.322h3.185A1.264,1.264,0,0,0,54.45,6.058V1.264A1.264,1.264,0,0,0,53.186,0H14.144A1.264,1.264,0,0,0,12.88,1.264V6.058a1.264,1.264,0,0,0,1.264,1.264H17.33V22.909A14.214,14.214,0,0,0,28.947,36.864v4.619h-12.3a1.264,1.264,0,0,0-1.264,1.264v1.768H11.661A1.264,1.264,0,0,0,10.4,45.78v4.477H7.51V45.78a1.264,1.264,0,0,0-1.264-1.265H1.263A1.264,1.264,0,0,0,0,45.78V57.261a1.264,1.264,0,0,0,1.264,1.264H6.246A1.264,1.264,0,0,0,7.51,57.261V52.784H10.4v4.477a1.264,1.264,0,0,0,1.264,1.264H15.38V60.1l-2.569,8.041a1.264,1.264,0,1,0,2.409.769l2.347-7.349H28.885L22.219,82.424H10.9l2.719-8.51a1.264,1.264,0,1,0-2.409-.769L7.966,83.3a1.264,1.264,0,0,0,1.2,1.648H28.024a1.264,1.264,0,1,0,0-2.528H24.873l6.667-20.867H33.72l-1.943,6.082a5.471,5.471,0,0,0,5.212,7.137h.736a1.264,1.264,0,1,0,0-2.528h-.736a2.944,2.944,0,0,1-2.8-3.84l2.189-6.851H51.515v2.96a1.264,1.264,0,0,0,1.265,1.264H63.5a1.264,1.264,0,0,0,1.264-1.264V62.8h4.667A1.264,1.264,0,0,0,70.7,61.532V58.1a1.263,1.263,0,0,0-.774-1.165l-5.156-2.169v-.221h1.326a3.021,3.021,0,1,0,0-6.042H64.766v-.221l5.156-2.168a1.264,1.264,0,0,0,.774-1.165V41.508a1.263,1.263,0,0,0-1.264-1.264ZM15.408,2.528H51.922V4.794H15.408ZM35.08,7.322V25.045a1.695,1.695,0,0,1-3.389,0v-7a4.222,4.222,0,1,0-8.445,0v.539a1.695,1.695,0,0,1-3.389,0V7.322ZM4.982,56H2.527V47.044H4.982ZM31.475,37.1h4.38v4.379h-4.38ZM12.925,56V47.044H15.38V56Zm4.982,3.033V44.011H51.516V59.029Zm44.33,4.224H54.043V39.787h8.194Zm5.931-4.318v1.333h-3.4V57.5Zm-2.076-7.908a.493.493,0,0,1,0,.986H64.766v-.986ZM68.168,44.1l-3.4,1.431V42.772h3.4Zm0,0" transform="translate(0)"/><path class="a" d="M122.6,279.234a5.163,5.163,0,1,0,5.163,5.163A5.169,5.169,0,0,0,122.6,279.234Zm0,7.8a2.635,2.635,0,1,1,2.635-2.635A2.638,2.638,0,0,1,122.6,287.032Zm0,0" transform="translate(-97.938 -232.877)"/><path class="a" d="M434.538,235.668a1.257,1.257,0,0,0,.784-.273l10.542-8.345a1.264,1.264,0,0,0-1.569-1.982l-10.542,8.346a1.264,1.264,0,0,0,.785,2.255Zm0,0" transform="translate(-361.344 -187.476)"/><path class="a" d="M445.864,338.993l-10.542-8.346a1.264,1.264,0,1,0-1.569,1.982l10.542,8.346a1.264,1.264,0,0,0,1.569-1.982Zm0,0" transform="translate(-361.343 -275.528)"/><path class="a" d="M453.354,302.723H444.46a1.264,1.264,0,0,0,0,2.528h8.895a1.264,1.264,0,1,0,0-2.528Zm0,0" transform="translate(-369.619 -252.467)"/></g></svg>