<svg xmlns="http://www.w3.org/2000/svg" width="91.256" height="85.001" viewBox="0 0 91.256 85.001"><defs><style>.a{fill:#b4c618;}</style></defs><path class="a" d="M18.939,3.931a11.574,11.574,0,0,1,19.705,4.09H62.2a3.565,3.565,0,1,1,0,7.129H38.65a11.577,11.577,0,0,1-19.679,4.125A2.472,2.472,0,0,1,20.8,15.151h4.148a3.572,3.572,0,0,0,0-7.145H20.8A2.458,2.458,0,0,1,18.94,3.931ZM91.255,67.2v1.762a8.922,8.922,0,0,1-8.912,8.912H80.129a10.695,10.695,0,0,1-20.777-3.565c0-.028,0-.054,0-.081s0-.054,0-.081a10.693,10.693,0,0,1,20.83-3.4h2.162a1.784,1.784,0,0,0,1.782-1.782V67.136a7.357,7.357,0,0,0-4.79-6.875l-.017-.006L68.435,56.207a3.564,3.564,0,0,1-.885.115H8.912A1.784,1.784,0,0,0,7.129,58.1v9.075a3.568,3.568,0,0,0,3.237,3.548,10.691,10.691,0,0,1,20.266.017H46.875a3.565,3.565,0,1,1,0,7.129H30.58a10.7,10.7,0,0,1-20.168,0A10.707,10.707,0,0,1,0,67.179V58.1a8.927,8.927,0,0,1,6.509-8.582l6.728-14.043C14.829,31.921,19,30.656,22.1,30.656H45.359a14.1,14.1,0,0,1,9.98,4.1l14.53,14.374,11.926,4.434A14.4,14.4,0,0,1,91.255,67.2ZM16.932,74.145c0,.027,0,.054,0,.081s0,.054,0,.081a3.565,3.565,0,1,0,7.129,0c0-.028,0-.054,0-.081s0-.054,0-.081a3.565,3.565,0,1,0-7.129,0Zm28.427-36.36H39.033V49.193H59.791l-9.467-9.365a7.017,7.017,0,0,0-4.965-2.042ZM14.572,49.193H31.9V37.786H22.1a3.947,3.947,0,0,0-2.38.659c-.01.022-.019.043-.031.065ZM73.61,74.308c0-.028,0-.054,0-.081s0-.054,0-.081a3.565,3.565,0,0,0-7.129,0c0,.027,0,.054,0,.081s0,.054,0,.081a3.565,3.565,0,1,0,7.129,0Zm0,0" transform="translate(0 -0.001)"/></svg>