<svg xmlns="http://www.w3.org/2000/svg" width="85" height="96.213" viewBox="0 0 85 96.213"><defs><style>.a{fill:#b4c618;}</style></defs><g transform="translate(-1.515)"><g transform="translate(1.515)"><path class="a" d="M39.981,91.147A11.9,11.9,0,0,1,36.57,91.1c-.266-.126.307-.725,1.021-1.314.829-.685.074-1.384-.326-1.739a42.287,42.287,0,0,1-3.812-3.867,2.86,2.86,0,0,0-2.32-1.01,39.433,39.433,0,0,1-5.114-.03c-.244-.115,1.162-1.288,2.535-2.391a2,2,0,0,0,.366-2.757,50.834,50.834,0,0,1-2.994-5.728A2.147,2.147,0,0,0,23.9,71.038c-2-.03-4.278.107-4.589-.037-.244-.118,1.521-1.784,3.3-3.26A2.5,2.5,0,0,0,23.285,65c-.559-2.313-1.18-4.648-1.562-7.075a1.955,1.955,0,0,0-1.921-1.75,22.969,22.969,0,0,1-3.93-.052c-.241-.115,1.576-1.743,3.575-3.231.54-.4,1.391-.688,1.551-2.768.044-.588-.037-1.18-.037-1.776a50.239,50.239,0,0,1,.3-5.91c.215-1.795-.866-2.157-1.462-2.128a23.87,23.87,0,0,1-3.96.056c-.266-.126,2.379-2.032,4.936-3.6a4.034,4.034,0,0,0,1.876-2.535c.666-2.239,1.232-4.478,2.065-6.591.751-1.909-.785-2.228-1.562-2.213a24.845,24.845,0,0,1-3.893,0c-.3-.141,3.086-2.091,6.239-3.4a6.684,6.684,0,0,0,3.323-2.9c.947-1.51,1.991-2.934,2.972-4.374.966-1.414-.1-1.6-.74-1.6a41.834,41.834,0,0,1-4.907.011c-.34-.155,5.029-2.224,8.256-3.038a6.847,6.847,0,0,0,2.975-1.5c1.1-.907,2.139-1.88,3.29-2.687,1.021-.718.192-.866-.274-.873-2.679-.037-5.118.2-5.517.007s6.842-1.488,9.684-1.684C47.06,1.958,51.32.8,54.077,0c-.714,0-1.317,0-1.551.022H36.488c-.9.115-4.763-.052-5.462,0A16.093,16.093,0,0,0,26.212,1.1c-1.147.463-1.521,1.939-.74,2.254.866.348,4.163,1.491,3.76,1.695A58.912,58.912,0,0,1,21.8,4.862c-1.088-.078-2.6-.174-3.234.289a13.14,13.14,0,0,0-2.627,2.442c-.6.6-.751,1.906.115,2.313.833.385,4.87,3.083,4.33,3.353a43.888,43.888,0,0,1-7.468.5c-1.362-.126-2.08-.048-2.613.71a27.349,27.349,0,0,0-2.553,4.759c-.433.873-.4,2.442.263,2.779A32.282,32.282,0,0,1,13.678,25.4c-2.139-.174-6.276.7-7.2.7s-1.662.048-1.987,1.025a39.894,39.894,0,0,0-1.517,6.036,2.391,2.391,0,0,0,.981,2.572c.81.463,6.942,4.618,6.317,4.585-1.04-.059-6.409,1.217-7.22,1.232s-1.34.648-1.428,1.713a32.43,32.43,0,0,0-.089,4.034c0,.733.015,1.465.037,2.187a3.456,3.456,0,0,0,1.872,2.635c1.214.577,7.442,3.638,6.887,3.919a67.1,67.1,0,0,1-6.668.944c-1.31.041-1.469,1.351-1.317,2.42a34.912,34.912,0,0,0,1.11,5.747,2.6,2.6,0,0,0,1.576,1.7c.7.233,9.5,3.826,8.94,4.108A56.762,56.762,0,0,1,7.4,72.226c-1.106.059-.992,1.632-.485,2.775A18.536,18.536,0,0,0,8.679,78.65a4.25,4.25,0,0,0,1.736,1.192c.7.155,10.709,2.968,10.15,3.245-.463.233-5.813.492-6.805.548s-.862,1.539-.3,2.217a14.814,14.814,0,0,0,2.657,2.779c.884.77,2.946.707,3.083.81,2.061.326,10.731,1.477,10.206,1.743a60.273,60.273,0,0,1-6.709.947c-.966-.044-.189,1.3.5,1.639a23.132,23.132,0,0,0,5.31,1.924.938.938,0,0,0,.2.022c.644,0,4.677.385,5.388.385.914,0,13.292.067,19.35.1a50.487,50.487,0,0,1-11.5-4.585A3.239,3.239,0,0,0,39.981,91.147Z" transform="translate(-1.515)"/></g><path class="a" d="M69.115,43.658c-.067-1.092-.629-1.872-1.425-1.8-.018,0-.037.044-.059.048-.115-1.332-.255-2.653-.455-3.952a.193.193,0,0,0,.052-.007,2.237,2.237,0,0,0,.925-2.435,66.058,66.058,0,0,0-1.88-7.767c-.3-1-1.88-1.417-1.88-1.417s-.747-1.835-1.217-2.96c.015-.019.037-.011.052-.026a2.687,2.687,0,0,0,.329-2.761,49.494,49.494,0,0,0-3.493-6.361c-.507-.777-2.416-.7-2.431-.666a23,23,0,0,0-1.477-1.887c.018-.033.041-.015.056-.048a2.7,2.7,0,0,0-.3-2.772,32.806,32.806,0,0,0-4.7-4.207c-.659-.47-3.515-.052-3.515-.052l-.729-.37c.011-.03.03-.037.033-.059A2.258,2.258,0,0,0,46.1,1.7,22.366,22.366,0,0,0,40.725.159,36.067,36.067,0,0,0,36.869,0a36.484,36.484,0,0,0-8.03,3.941c2.457.292-3.1,4.2-2.672,1.909a40.382,40.382,0,0,0-4.578,4.178c2.354.226-2.024,5.776-2.742,3.2A48.251,48.251,0,0,0,13.9,21.141c2.139-.64-.44,6.4-1.95,4.415a57.01,57.01,0,0,0-2.827,9.832c1.991-.733,1.051,5.68-.744,4.759a69.9,69.9,0,0,0-.474,8.2q0,.883.022,1.754c1.935-.814,2.875,5.051.3,5.1a62.485,62.485,0,0,0,1.787,10.021c1.177-1.158,4.23,3.93,1.491,4.737a50.065,50.065,0,0,0,3.649,7.849c.725-1.388,4.4,3.149,2.305,3.6a43.307,43.307,0,0,0,5.373,6.261c.322-1.321,4.156,1.573,2.653,2.342A39.137,39.137,0,0,0,36.259,96.2c1.935.007,3.216.015,3.216.015a13.916,13.916,0,0,0,3.7-.522c.71-.207,2.124-2.409,2.124-2.409s2.561-.122,3.09-.122a.948.948,0,0,0,.474-.133,29.69,29.69,0,0,0,4.9-3.626,2.614,2.614,0,0,0,.448-2.72c-.011-.022-.03-.022-.033-.044a21.385,21.385,0,0,0,1.588-1.747,14.319,14.319,0,0,0,1.569.148,1.082,1.082,0,0,0,.851-.481,44.245,44.245,0,0,0,3.823-5.917,2.742,2.742,0,0,0-.178-2.79c-.022-.026-.048-.011-.067-.033.529-1.073.914-1.791,1.391-2.938.015.019.588-.052.81-.052.455,0,.888-.363,1.136-1a61.983,61.983,0,0,0,2.283-7.512,2.375,2.375,0,0,0-.8-2.542c-.011,0-.022.007-.033,0,.263-1.273.474-2.572.662-3.886.019,0,.022.033.037.037a.984.984,0,0,0,.226.026c.633,0,1.184-.685,1.3-1.647a73.4,73.4,0,0,0,.466-8.248C69.245,46.574,69.2,45.105,69.115,43.658ZM39.652,78.684C29.568,78.684,21.394,65,21.394,48.118s8.174-30.57,18.258-30.57,18.255,13.684,18.255,30.57S49.739,78.684,39.652,78.684Z" transform="translate(17.267)"/></g></svg>