<svg xmlns="http://www.w3.org/2000/svg" width="86.398" height="86.398" viewBox="0 0 86.398 86.398"><defs><style>.a{fill:#b4c618;}</style></defs><g transform="translate(-0.002 0)"><g transform="translate(56.982 10.541)"><path class="a" d="M279.577,49.97a9.439,9.439,0,1,0,9.439,9.439A9.449,9.449,0,0,0,279.577,49.97Zm0,16.717a7.279,7.279,0,1,1,7.279-7.278A7.287,7.287,0,0,1,279.577,66.687Z" transform="translate(-270.138 -49.97)"/></g><g transform="translate(46.443 0)"><g transform="translate(0 0)"><path class="a" d="M259.162,22.982a3.02,3.02,0,0,1,0-6.005,1.079,1.079,0,0,0,.942-1.3,20.241,20.241,0,0,0-2.8-6.764,1.08,1.08,0,0,0-1.586-.253,3.018,3.018,0,0,1-4.244-4.244,1.081,1.081,0,0,0-.253-1.586A20.224,20.224,0,0,0,244.453.025a1.08,1.08,0,0,0-1.3.943,3.019,3.019,0,0,1-6,0,1.08,1.08,0,0,0-1.3-.943,20.224,20.224,0,0,0-6.763,2.805,1.081,1.081,0,0,0-.254,1.586,3.018,3.018,0,0,1-4.244,4.244,1.059,1.059,0,0,0-.849-.227,1.081,1.081,0,0,0-.737.48,20.241,20.241,0,0,0-2.8,6.764,1.079,1.079,0,0,0,.942,1.3,3.02,3.02,0,0,1,0,6.005,1.079,1.079,0,0,0-.942,1.3A20.21,20.21,0,0,0,223,31.045a1.079,1.079,0,0,0,.736.48,1.065,1.065,0,0,0,.849-.227,3.019,3.019,0,0,1,4.244,4.245,1.081,1.081,0,0,0,.254,1.586,20.268,20.268,0,0,0,6.764,2.805,1.093,1.093,0,0,0,.861-.181,1.08,1.08,0,0,0,.44-.761,3.019,3.019,0,0,1,6,0,1.08,1.08,0,0,0,1.074.967,1.1,1.1,0,0,0,.227-.024,20.262,20.262,0,0,0,6.763-2.805,1.081,1.081,0,0,0,.254-1.586,3.019,3.019,0,0,1,4.245-4.244,1.081,1.081,0,0,0,1.586-.254,20.227,20.227,0,0,0,2.8-6.762,1.079,1.079,0,0,0-.942-1.3Zm-3.126,5.984a5.183,5.183,0,0,0-6.9,6.9,18.092,18.092,0,0,1-4.107,1.7,5.183,5.183,0,0,0-9.76,0,18.02,18.02,0,0,1-4.107-1.705,5.182,5.182,0,0,0-6.9-6.9,18.017,18.017,0,0,1-1.7-4.107,5.183,5.183,0,0,0,0-9.76,18.036,18.036,0,0,1,1.7-4.107,5.182,5.182,0,0,0,6.9-6.9,18.112,18.112,0,0,1,4.107-1.7,5.183,5.183,0,0,0,9.76,0,18.109,18.109,0,0,1,4.106,1.7,5.183,5.183,0,0,0,6.9,6.9,18.055,18.055,0,0,1,1.7,4.107,5.183,5.183,0,0,0,0,9.76A18.055,18.055,0,0,1,256.036,28.966Z" transform="translate(-220.172 0)"/></g></g><g transform="translate(15.429 44.344)"><path class="a" d="M86.451,210.23a13.314,13.314,0,1,0,13.313,13.314A13.329,13.329,0,0,0,86.451,210.23Zm0,24.468A11.154,11.154,0,1,1,97.6,223.544,11.166,11.166,0,0,1,86.451,234.7Z" transform="translate(-73.138 -210.23)"/></g><g transform="translate(0.002 28.918)"><g transform="translate(0)"><path class="a" d="M56.515,170.729a4.919,4.919,0,0,1,0-9.783,1.079,1.079,0,0,0,.943-1.3,29.125,29.125,0,0,0-4.036-9.732,1.08,1.08,0,0,0-1.586-.253,4.919,4.919,0,0,1-6.916-6.916,1.081,1.081,0,0,0-.254-1.586,29.113,29.113,0,0,0-9.732-4.036,1.08,1.08,0,0,0-1.3.943,4.919,4.919,0,0,1-9.783,0,1.081,1.081,0,0,0-.44-.761,1.092,1.092,0,0,0-.861-.181,29.1,29.1,0,0,0-9.731,4.036,1.081,1.081,0,0,0-.254,1.586,4.919,4.919,0,0,1-6.916,6.916,1.08,1.08,0,0,0-1.586.253,29.129,29.129,0,0,0-4.036,9.732,1.079,1.079,0,0,0,.943,1.3,4.919,4.919,0,0,1,0,9.783,1.079,1.079,0,0,0-.943,1.3,29.129,29.129,0,0,0,4.036,9.732,1.079,1.079,0,0,0,.737.48,1.066,1.066,0,0,0,.85-.227,4.919,4.919,0,0,1,6.916,6.916,1.081,1.081,0,0,0,.254,1.586,29.1,29.1,0,0,0,9.731,4.036,1.08,1.08,0,0,0,1.3-.943,4.919,4.919,0,0,1,9.783,0,1.08,1.08,0,0,0,1.074.967,1.1,1.1,0,0,0,.227-.024,29.114,29.114,0,0,0,9.732-4.036,1.081,1.081,0,0,0,.254-1.586,4.918,4.918,0,0,1,6.916-6.916,1.065,1.065,0,0,0,.849.227,1.08,1.08,0,0,0,.737-.48,29.125,29.125,0,0,0,4.036-9.732,1.079,1.079,0,0,0-.943-1.3Zm-4.329,8.924a7.082,7.082,0,0,0-9.628,9.629,26.961,26.961,0,0,1-7.007,2.907,7.083,7.083,0,0,0-13.62,0,26.954,26.954,0,0,1-7.006-2.907A7.082,7.082,0,0,0,5.3,179.653a26.924,26.924,0,0,1-2.907-7.006,7.083,7.083,0,0,0,0-13.62A26.931,26.931,0,0,1,5.3,152.021a7.082,7.082,0,0,0,9.628-9.629,26.948,26.948,0,0,1,7.006-2.907,7.083,7.083,0,0,0,13.62,0,26.967,26.967,0,0,1,7.007,2.907,7.082,7.082,0,0,0,9.628,9.629,26.931,26.931,0,0,1,2.907,7.006,7.083,7.083,0,0,0,0,13.62A26.931,26.931,0,0,1,52.186,179.653Z" transform="translate(-0.002 -137.098)"/></g></g></g></svg>