<svg xmlns="http://www.w3.org/2000/svg" width="68.806" height="39.5" viewBox="0 0 68.806 39.5"><defs><style>.a{fill:#b4c618;}</style></defs><path class="a" d="M72.531,27.193H64.886a1.274,1.274,0,0,0-1.274,1.274V32.29H61.064V28.468a1.274,1.274,0,0,0-.373-.9l-5.1-5.1a1.273,1.273,0,0,0-.9-.373H47.048V19.548H49.6A1.274,1.274,0,0,0,49.6,17H29.209a1.274,1.274,0,1,0,0,2.548h2.548V22.1H24.113a1.273,1.273,0,0,0-.9.373l-4.723,4.723H11.371A1.274,1.274,0,0,0,10.1,28.468v8.919H7.548V28.468a1.274,1.274,0,1,0-2.548,0V50.129a1.274,1.274,0,0,0,2.548,0V39.935H10.1V50.129A1.274,1.274,0,0,0,11.371,51.4H18.63l7.324,4.883a1.275,1.275,0,0,0,.707.214H59.79a1.274,1.274,0,0,0,1.274-1.274V51.4h2.548v3.823A1.274,1.274,0,0,0,64.886,56.5h7.645a1.274,1.274,0,0,0,1.274-1.274V28.468A1.274,1.274,0,0,0,72.531,27.193ZM34.306,19.548H44.5V22.1H34.306Zm36.951,34.4h-5.1V50.129a1.274,1.274,0,0,0-1.274-1.274h-5.1a1.274,1.274,0,0,0-1.274,1.274v3.823H27.047l-7.324-4.883a1.275,1.275,0,0,0-.707-.214H12.645V29.742h6.371a1.273,1.273,0,0,0,.9-.373l4.723-4.723H54.165L58.516,29v4.569a1.274,1.274,0,0,0,1.274,1.274h5.1a1.274,1.274,0,0,0,1.274-1.274V29.742h5.1Z" transform="translate(-5 -17)"/></svg>