<svg xmlns="http://www.w3.org/2000/svg" width="91.329" height="84.03" viewBox="0 0 91.329 84.03"><defs><style>.a{fill:#b4c618;}</style></defs><g transform="translate(0 -20.46)"><g transform="translate(0 20.46)"><path class="a" d="M71.77,84.782H35.5L33.4,76.359H80.95L91.329,34.842H23.017l-3.6-14.382H0v5.958H14.77L29.434,85.073A9.857,9.857,0,1,0,40.856,90.74H62.721a9.853,9.853,0,1,0,9.049-5.958ZM51.2,70.4H44.585L43.108,58.579H51.2V70.4ZM73.476,40.8H83.7L80.743,52.621H72Zm-2.222,17.78h8L76.3,70.4H69.776ZM57.157,40.8H67.472L65.994,52.621H57.157V40.8Zm0,17.78h8.092L63.771,70.4H57.157V58.579ZM51.2,40.8V52.621H42.363L40.885,40.8Zm-26.693,0H34.881l1.478,11.822h-8.9Zm4.445,17.78H37.1L38.581,70.4H31.907Zm2.855,39.953a3.9,3.9,0,1,1,3.9-3.9A3.9,3.9,0,0,1,31.807,98.532Zm39.963,0a3.9,3.9,0,1,1,3.9-3.9A3.9,3.9,0,0,1,71.77,98.532Z" transform="translate(0 -20.46)"/></g></g></svg>