<svg xmlns="http://www.w3.org/2000/svg" width="91.329" height="91.329" viewBox="0 0 91.329 91.329"><defs><style>.a{fill:#b4c618;}</style></defs><g transform="translate(0 0)"><g transform="translate(0 0)"><path class="a" d="M89.808,0H1.522A1.522,1.522,0,0,0,0,1.521H0V31.965H3.044V3.044h85.24V36.532H35.009v3.044h54.8a1.522,1.522,0,0,0,1.522-1.521h0V1.522A1.522,1.522,0,0,0,89.808,0Z" transform="translate(0 0)"/></g></g><g transform="translate(50.418 7.563)"><g transform="translate(0 0)"><rect class="a" width="31" height="2" transform="translate(-0.418 0.437)"/></g></g><g transform="translate(54.2 16.386)"><g transform="translate(0 0)"><rect class="a" width="32" height="4" transform="translate(-0.2 -0.386)"/></g></g><g transform="translate(49.158 26.47)"><g transform="translate(0 0)"><rect class="a" width="30" height="3" transform="translate(-0.158 -0.47)"/></g></g><g transform="translate(0 6.089)"><g transform="translate(0)"><path class="a" d="M48.587,39.035a4.912,4.912,0,0,0-6.422-2.649l-.128.055L29.7,42.844a7.527,7.527,0,0,0,.748-3.233,7.611,7.611,0,1,0-13.66,4.566h-.063a10.445,10.445,0,0,0-9.7,6.758L2.953,64.94a4.875,4.875,0,1,0,9.155,3.353L13.7,63.228v22.03A7.588,7.588,0,0,0,3.822,96.743,7.012,7.012,0,0,0,0,102.963v12.755a1.522,1.522,0,0,0,1.521,1.522H16.744a1.522,1.522,0,0,0,1.522-1.521h0V102.963a7,7,0,0,0-2.716-5.51H27.071a7,7,0,0,0-2.716,5.51v12.755a1.522,1.522,0,0,0,1.521,1.522H41.1a1.522,1.522,0,0,0,1.522-1.521h0V102.963a7.012,7.012,0,0,0-3.822-6.22,7.6,7.6,0,0,0-6.833-12.892V52.712l13.974-7.256A4.912,4.912,0,0,0,48.587,39.035ZM22.832,35.044a4.566,4.566,0,1,1-4.566,4.566A4.566,4.566,0,0,1,22.832,35.044Zm-13.7,51.7a4.566,4.566,0,1,1-4.566,4.566A4.566,4.566,0,0,1,9.133,86.741ZM15.222,114.2H3.044V102.963a3.994,3.994,0,0,1,3.989-3.988h4.2a3.994,3.994,0,0,1,3.989,3.988Zm24.354-11.233V114.2H27.4V102.963a3.994,3.994,0,0,1,3.989-3.988h4.2A3.994,3.994,0,0,1,39.576,102.963ZM33.487,86.741a4.566,4.566,0,1,1-4.566,4.566A4.571,4.571,0,0,1,33.487,86.741ZM45.8,41.574A1.958,1.958,0,0,1,44.653,42.7L29.742,50.437a1.523,1.523,0,0,0-.821,1.351v33.47a7.508,7.508,0,0,0-2.368,9.15h-2.2V68.532H21.31V94.408H16.068a7.54,7.54,0,0,0,.67-3.044h.006V53.31a1.522,1.522,0,0,0-2.974-.456L9.224,67.317a1.83,1.83,0,0,1-2.539,1.012,1.868,1.868,0,0,1-.85-2.417L9.9,51.907a7.354,7.354,0,0,1,6.821-4.685H27.5a1.516,1.516,0,0,0,.7-.171L43.327,39.2a1.874,1.874,0,0,1,2.4.887A1.852,1.852,0,0,1,45.8,41.574Z" transform="translate(0 -32)"/></g></g><g transform="translate(48.709 57.769)"><path class="a" d="M270.444,316.681a7.611,7.611,0,1,0-10.762-.14q.069.071.14.14A7.013,7.013,0,0,0,256,322.9v12.755a1.522,1.522,0,0,0,1.521,1.522h15.222a1.522,1.522,0,0,0,1.522-1.521h0V322.9A7.012,7.012,0,0,0,270.444,316.681Zm-5.311-10a4.566,4.566,0,1,1-4.566,4.566A4.566,4.566,0,0,1,265.133,306.679Zm6.089,27.455H259.044V322.9a3.994,3.994,0,0,1,3.989-3.988h4.2a3.994,3.994,0,0,1,3.989,3.988Z" transform="translate(-256 -303.618)"/></g><g transform="translate(73.063 57.769)"><path class="a" d="M398.444,316.681a7.611,7.611,0,1,0-10.762-.14q.069.071.14.14A7.013,7.013,0,0,0,384,322.9v12.755a1.522,1.522,0,0,0,1.521,1.522h15.222a1.522,1.522,0,0,0,1.522-1.521h0V322.9A7.012,7.012,0,0,0,398.444,316.681Zm-5.311-10a4.566,4.566,0,1,1-4.566,4.566A4.566,4.566,0,0,1,393.133,306.679Zm6.089,27.455H387.044V322.9a3.994,3.994,0,0,1,3.989-3.988h4.2a3.994,3.994,0,0,1,3.989,3.988Z" transform="translate(-384 -303.618)"/></g></svg>