<svg xmlns="http://www.w3.org/2000/svg" width="145.159" height="145.19" viewBox="0 0 145.159 145.19"><defs><style>.a{fill:#1b1c20;}</style></defs><g transform="translate(-0.017 -0.001)"><g transform="translate(0.017 0.001)"><path class="a" d="M89.984,16.091,53.686.2A2.42,2.42,0,0,0,51.75.2l-36.3,15.889A2.42,2.42,0,0,0,14,18.308V56.3A26.652,26.652,0,0,0,25.035,77.856L50.121,95.949a4.429,4.429,0,0,0,5.193,0L80.4,77.858A26.652,26.652,0,0,0,91.436,56.3V18.308A2.42,2.42,0,0,0,89.984,16.091ZM86.6,56.3A21.8,21.8,0,0,1,77.57,73.933L52.718,91.857,27.866,73.933A21.8,21.8,0,0,1,18.84,56.3V19.891L52.718,5.062,86.6,19.891Z" transform="translate(19.836 -0.001)"/><path class="a" d="M46.07,4.569,19.452,16.223A2.42,2.42,0,0,0,18,18.439V50.1a16.939,16.939,0,0,0,7.018,13.706L45.623,78.672a2.42,2.42,0,0,0,2.831,0L69.059,63.809A16.939,16.939,0,0,0,76.077,50.1V18.439a2.42,2.42,0,0,0-1.452-2.217L48.006,4.569A2.42,2.42,0,0,0,46.07,4.569ZM71.237,20.019V50.1a12.1,12.1,0,0,1-5.009,9.781L47.038,73.726,27.849,59.884A12.1,12.1,0,0,1,22.84,50.1V20.019l24.2-10.592Z" transform="translate(25.515 6.199)"/><path class="a" d="M20.024,43.075,14.79,30.845A7.715,7.715,0,0,0,.675,37.076l9.483,20.862a25.7,25.7,0,0,0,5.254,7.584L30.325,80.437a4.811,4.811,0,0,0-1.312,3.291v19.359a4.84,4.84,0,0,0,4.84,4.84H60.472a4.84,4.84,0,0,0,4.84-4.84V83.728a4.84,4.84,0,0,0-4.84-4.84v-4.5a25.355,25.355,0,0,0-5.3-15.85A17.423,17.423,0,0,0,47.1,52.652a47.867,47.867,0,0,1-13.854-8.891A11.131,11.131,0,0,0,20.024,43.075Zm40.448,60.013H33.853V83.728H60.472ZM51.39,61.557a20.532,20.532,0,0,1,4.242,12.828v4.5H35.622L18.833,62.1a20.93,20.93,0,0,1-4.271-6.163L5.079,35.074a2.876,2.876,0,1,1,5.261-2.323l5.413,12.624a28.555,28.555,0,0,0,6.1,9.014L32.91,65.446a2.42,2.42,0,1,0,3.422-3.422L25.277,50.968a23.868,23.868,0,0,1-2.984-3.63,6.292,6.292,0,0,1,7.838.131A51.589,51.589,0,0,0,45.57,57.245,12.711,12.711,0,0,1,51.39,61.557Z" transform="translate(-0.017 37.264)"/><path class="a" d="M24.84,53H22.42a2.42,2.42,0,0,0,0,4.84h2.42a2.42,2.42,0,0,0,0-4.84Z" transform="translate(28.355 75.251)"/><path class="a" d="M88.153,58l9.483-20.862a7.715,7.715,0,1,0-14.113-6.231L78.3,43.1a11.161,11.161,0,0,0-13.239.726,47.867,47.867,0,0,1-13.854,8.891,17.423,17.423,0,0,0-8.065,5.883,25.355,25.355,0,0,0-5.3,15.857v4.5A4.84,4.84,0,0,0,33,83.795v19.359a4.84,4.84,0,0,0,4.84,4.84H64.458a4.84,4.84,0,0,0,4.84-4.84V83.795A4.811,4.811,0,0,0,67.986,80.5L82.9,65.588A25.7,25.7,0,0,0,88.153,58Zm-23.7,45.15H37.84V83.795H64.458Zm-1.769-24.2H42.679v-4.5a20.532,20.532,0,0,1,4.242-12.825,12.72,12.72,0,0,1,5.808-4.315A51.568,51.568,0,0,0,68.17,47.536a6.292,6.292,0,0,1,7.852-.152,23.727,23.727,0,0,1-3,3.654L61.971,62.093a2.42,2.42,0,0,0,3.422,3.422L76.446,54.459a28.553,28.553,0,0,0,6.1-9.014l5.413-12.627a2.876,2.876,0,1,1,5.261,2.325L83.74,56.005a20.928,20.928,0,0,1-4.271,6.163Z" transform="translate(46.813 37.197)"/><path class="a" d="M41.84,53H39.42a2.42,2.42,0,0,0,0,4.84h2.42a2.42,2.42,0,0,0,0-4.84Z" transform="translate(52.493 75.251)"/><path class="a" d="M26.872,34.263a2.42,2.42,0,0,0-2.9,3.872l9.679,7.26a2.42,2.42,0,0,0,1.452.484,2.6,2.6,0,0,0,.409-.034,2.42,2.42,0,0,0,1.6-1.043L56.472,15.763a2.42,2.42,0,0,0-4.027-2.686L34.5,39.988Z" transform="translate(32.615 17.037)"/></g></g></svg>